<svg width="45" height="41" viewBox="0 0 45 41" fill="none" xmlns="http://www.w3.org/2000/svg">
<path d="M10.0722 17.434L9.19896 21.0467C8.98732 21.9232 8.94372 22.83 9.0295 23.726L6.5545 25.9838C6.09255 26.4053 5.4077 25.9503 5.52653 25.3006L6.61216 19.3264C6.68669 18.9166 6.42513 18.5255 6.04966 18.4858L0.575122 17.8975C-0.0204255 17.8337 -0.214488 16.9759 0.284028 16.6089L4.86489 13.2354C5.17848 13.004 5.24317 12.5225 5.00411 12.2L1.50887 7.49342C1.12848 6.98155 1.53911 6.22349 2.12622 6.35438L7.51778 7.55731C7.88763 7.63989 8.2406 7.35007 8.27716 6.93403L8.80802 0.867945C8.86567 0.207267 9.63982 -0.00698546 9.97169 0.545397L13.0162 5.62046C13.2251 5.96794 13.6596 6.03962 13.9507 5.77472L18.1976 1.90181C18.6595 1.48032 19.3437 1.93531 19.2255 2.58508L18.4289 6.96052C18.2383 7.19814 18.0471 7.43499 17.8727 7.69287L15.6122 11.0407L14.8591 12.1563C12.5578 12.8388 10.698 14.8466 10.0722 17.434ZM44.8467 27.7578L43.9734 31.3698C43.7534 32.2797 43.3139 33.0534 42.7394 33.6572C42.5483 33.8578 42.3422 34.0402 42.1235 34.2026L41.1398 38.2718C41.0597 38.6045 40.9219 38.9029 40.7426 39.1584C40.2033 39.9251 39.2843 40.3022 38.3843 40.0349L36.2109 39.3898C35.0107 39.0338 34.2984 37.6665 34.6198 36.3365L35.2019 33.9283L17.8151 28.766L17.2329 31.1742C16.9115 32.5041 15.6776 33.2934 14.4773 32.9373L12.304 32.2922C11.404 32.025 10.7782 31.189 10.6572 30.2268C10.6172 29.9058 10.6326 29.5708 10.7128 29.2389L11.6965 25.1697C11.5801 24.9077 11.4839 24.6354 11.4089 24.3555C11.1839 23.5149 11.1522 22.601 11.3723 21.691L12.2456 18.0783C12.619 16.5357 13.6069 15.3647 14.8394 14.7897C15.2539 14.5962 15.6921 14.4723 16.1395 14.422L17.4143 12.5342L19.6748 9.18641C19.9174 8.82724 20.1804 8.49301 20.4623 8.18604C21.0248 7.57133 21.6597 7.06102 22.3425 6.66602C22.6842 6.46812 23.0379 6.29906 23.4007 6.16038C24.127 5.88146 24.8906 5.72175 25.6676 5.6898C26.4445 5.65786 27.2362 5.75369 28.0181 5.98586L36.6441 8.54677C37.4259 8.77894 38.1544 9.13421 38.8132 9.5931C39.7964 10.2771 40.6296 11.1954 41.2523 12.281C41.8725 13.3624 42.2817 14.6058 42.4252 15.942L42.8723 20.0938L43.1248 22.435C43.8549 23.0191 44.4115 23.8309 44.7237 24.7669C45.0323 25.6924 45.0956 26.7294 44.8467 27.7578ZM17.9704 18.4881C16.6661 18.1009 15.5651 18.8029 15.2163 20.2434C14.8676 21.684 15.5053 22.9017 16.8089 23.2889C18.1132 23.6761 20.0109 24.4973 20.359 23.0567C20.7077 21.6162 19.274 18.8753 17.9704 18.4881ZM38.404 20.6828L37.9568 16.531C37.916 16.1516 37.8239 15.7885 37.6882 15.4512C37.2804 14.4391 36.4788 13.6584 35.479 13.3616L26.853 10.8007C26.2015 10.6073 25.5126 10.6346 24.8751 10.8792C24.2377 11.1237 23.6811 11.5743 23.2769 12.1727L21.0164 15.5205L33.1101 19.1106L38.404 20.6828ZM39.7041 24.9406C38.3998 24.5534 35.9212 26.1334 35.5732 27.5732C35.2251 29.0138 37.2389 29.3542 38.5432 29.7414C39.8475 30.1286 40.9486 29.4267 41.2973 27.9861C41.6454 26.5463 41.0084 25.3278 39.7041 24.9406Z" fill="black"/>
</svg>
